<?xml version="1.0" encoding="UTF-8" standalone="no"?><!-- Generator: Gravit.io --><svg xmlns="http://www.w3.org/2000/svg" xmlns:xlink="http://www.w3.org/1999/xlink" style="isolation:isolate" viewBox="0 0 560 315" width="560pt" height="315pt"><defs><clipPath id="_clipPath_wAoMDfdkOvbV6rYVJ1laECinD2LEMDJX"><rect width="560" height="315"/></clipPath></defs><g clip-path="url(#_clipPath_wAoMDfdkOvbV6rYVJ1laECinD2LEMDJX)"><g><path d=" M 191.6 124.038 L 176.5 132.431 L 191.823 142.795 L 191.6 124.038 Z " fill="rgb(94,156,118)"/><path d=" M 191.6 149.107 L 176.5 157.5 L 191.823 167.87 L 191.6 149.107 Z " fill="rgb(94,156,118)"/><path d=" M 211.249 112.732 L 213.466 90.644 L 196.65 106.045 L 211.249 112.732 Z " fill="rgb(94,156,118)"/><path d=" M 195.435 104.431 L 178.646 96.9 L 186.774 116.242 L 195.435 104.431 Z " fill="rgb(94,156,118)"/><path d=" M 368.4 165.819 L 383.5 174.213 L 368.177 184.582 L 368.4 165.819 Z " fill="rgb(94,156,118)"/><path d=" M 368.4 190.894 L 383.5 199.287 L 368.177 209.651 L 368.4 190.894 Z " fill="rgb(94,156,118)"/><path d=" M 348.751 154.513 L 346.534 132.431 L 363.35 147.832 L 348.751 154.513 Z " fill="rgb(94,156,118)"/><path d=" M 250.039 59.984 L 232.172 54.682 L 243.083 74.079 L 250.039 59.984 Z " fill="rgb(94,156,118)"/><path d=" M 245.818 89.449 L 225.172 98.828 L 246.924 110.706 L 245.818 89.449 Z " fill="rgb(94,156,118)"/><path d=" M 245.485 131.391 L 227.024 139.045 L 246.738 149.138 L 245.485 131.391 Z " fill="rgb(94,156,118)"/><path d=" M 250.426 221.277 C 248.516 221.265 246.609 221.132 244.712 220.877 C 211.047 216.511 186.616 184.823 186.616 145.517 L 186.616 119.894 C 186.616 110.072 193.686 102.079 202.375 102.079 C 211.064 102.079 218.134 110.072 218.134 119.894 L 218.134 149.144 C 218.134 166.909 223.402 179.742 233.795 187.292 C 241.939 193.21 250.971 194.096 255.634 194.096 L 256.424 194.09 C 259.436 199.355 264.535 210.526 261.789 216.511 C 260.34 219.676 256.516 221.277 250.426 221.277 C 250.432 221.277 250.432 221.277 250.426 221.277 Z " fill="rgb(186,224,189)"/><path d=" M 202.375 105.158 C 209.571 105.168 215.402 111.76 215.411 119.894 L 215.411 149.144 C 215.411 184.127 235.686 196.867 254.92 197.169 C 258.14 203.204 261.01 211.499 259.365 215.089 C 258.461 217.065 255.204 218.198 250.426 218.198 C 248.803 218.198 246.983 218.069 245.022 217.817 C 212.758 213.635 189.339 183.228 189.339 145.517 L 189.339 119.894 C 189.348 111.76 195.179 105.168 202.375 105.158 M 202.375 99 C 197.473 99 192.772 101.201 189.306 105.12 C 185.839 109.038 183.892 114.352 183.892 119.894 L 183.892 145.517 C 183.892 187.138 209.636 219.43 244.401 223.938 C 246.619 224.227 248.623 224.362 250.426 224.362 C 278.774 224.362 257.818 190.931 257.818 190.931 C 257.818 190.931 257.007 191.017 255.623 191.017 C 247.675 191.017 220.852 188.129 220.852 149.144 L 220.852 119.894 C 220.855 114.352 218.91 109.037 215.444 105.118 C 211.978 101.199 207.277 98.998 202.375 99 L 202.375 99 Z " fill="rgb(94,156,118)"/><mask id="_mask_oLxBRlpPm3psLMZKBugPjdixlppIZqpJ" x="-200%" y="-200%" width="400%" height="400%"><rect x="-200%" y="-200%" width="400%" height="400%" style="fill:white;"/><path d=" M 201.912 111.667 C 201.912 151.471 199.679 207.644 257.203 207.644" fill="black" stroke="none"/></mask><path d=" M 201.912 111.667 C 201.912 151.471 199.679 207.644 257.203 207.644" fill="none" mask="url(#_mask_oLxBRlpPm3psLMZKBugPjdixlppIZqpJ)" vector-effect="non-scaling-stroke" stroke-width="2" stroke="rgb(147,204,151)" stroke-linejoin="miter" stroke-linecap="round" stroke-miterlimit="10"/><path d=" M 201.912 111.667 C 201.912 151.471 199.679 207.644 257.203 207.644" fill="none"/><path d=" M 316.966 246.352 C 310.233 246.352 304.813 244.277 301.288 240.354 C 298.502 237.233 296.932 232.984 296.925 228.55 C 296.925 223.894 298.886 219.079 302.176 219.079 C 303.402 219.079 304.786 219.134 306.278 219.19 C 308.098 219.258 310.069 219.331 312.118 219.331 C 319.477 219.331 341.866 219.331 341.866 190.931 L 341.866 161.681 C 341.866 151.859 348.936 143.866 357.625 143.866 C 366.314 143.866 373.384 151.859 373.384 161.681 L 373.384 182.575 C 373.384 226.629 345.047 246.352 316.966 246.352 Z " fill="rgb(186,224,189)"/><path d=" M 357.625 146.945 C 364.821 146.956 370.652 153.547 370.661 161.681 L 370.661 182.575 C 370.661 224.504 343.691 243.273 316.966 243.273 C 310.963 243.273 306.207 241.506 303.206 238.162 C 300.938 235.619 299.66 232.16 299.654 228.55 C 299.654 224.954 301.011 222.158 302.182 222.158 C 303.38 222.158 304.737 222.207 306.196 222.263 C 308.043 222.33 310.048 222.404 312.123 222.404 C 333.667 222.404 344.595 211.813 344.595 190.925 L 344.595 161.675 C 344.601 153.543 350.431 146.952 357.625 146.945 M 357.625 140.787 C 352.723 140.787 348.022 142.989 344.556 146.907 C 341.089 150.825 339.142 156.14 339.142 161.681 L 339.142 190.931 C 339.142 213.592 324.287 216.252 312.118 216.252 C 308.381 216.252 304.894 216 302.176 216 C 290.595 216 288.623 249.431 316.96 249.431 C 345.298 249.431 376.102 229.467 376.102 182.575 L 376.102 161.681 C 376.105 156.14 374.16 150.825 370.694 146.906 C 367.228 142.987 362.527 140.786 357.625 140.787 L 357.625 140.787 Z " fill="rgb(94,156,118)"/><mask id="_mask_TfZpHHrHEi2qLpg0f9AeMiW0iwQnwRxT" x="-200%" y="-200%" width="400%" height="400%"><rect x="-200%" y="-200%" width="400%" height="400%" style="fill:white;"/><path d=" M 357.162 153.454 C 357.162 193.259 363.209 232.719 308.953 232.719" fill="black" stroke="none"/></mask><path d=" M 357.162 153.454 C 357.162 193.259 363.209 232.719 308.953 232.719" fill="none" mask="url(#_mask_TfZpHHrHEi2qLpg0f9AeMiW0iwQnwRxT)" vector-effect="non-scaling-stroke" stroke-width="2" stroke="rgb(147,204,151)" stroke-linejoin="miter" stroke-linecap="round" stroke-miterlimit="10"/><path d=" M 357.162 153.454 C 357.162 193.259 363.209 232.719 308.953 232.719" fill="none"/><path d=" M 253.711 271.421 L 239.989 92.904 C 239.028 80.228 242.803 67.677 250.399 58.29 C 257.987 48.942 268.773 43.579 280 43.579 C 291.227 43.579 302.013 48.942 309.601 58.296 C 317.2 67.681 320.975 80.234 320.011 92.91 L 306.289 271.421 L 253.711 271.421 Z " fill="rgb(186,224,189)"/><path d=" M 280 46.658 C 290.617 46.658 300.417 51.529 307.591 60.378 C 314.726 69.089 318.253 80.816 317.293 92.639 L 303.789 268.342 L 256.211 268.342 L 242.702 92.639 C 241.741 80.816 245.268 69.089 252.404 60.378 C 259.466 51.588 269.497 46.601 280 46.658 Z  M 280 40.5 C 254.849 40.5 235.103 64.848 237.276 93.175 L 251.216 274.5 L 308.784 274.5 L 322.724 93.175 C 324.897 64.848 305.15 40.5 280 40.5 Z " fill="rgb(94,156,118)"/><path d=" M 313.883 62.521 L 331.75 57.213 L 320.844 76.616 L 313.883 62.521 Z " fill="rgb(94,156,118)"/><path d=" M 318.426 89.449 L 339.071 98.828 L 317.32 110.706 L 318.426 89.449 Z " fill="rgb(94,156,118)"/><path d=" M 317.799 131.391 L 336.26 139.045 L 316.546 149.138 L 317.799 131.391 Z " fill="rgb(94,156,118)"/><path d=" M 313.289 171.996 L 331.75 179.65 L 312.036 189.737 L 313.289 171.996 Z " fill="rgb(94,156,118)"/><path d=" M 364.565 146.213 L 381.354 138.688 L 373.226 158.03 L 364.565 146.213 Z " fill="rgb(94,156,118)"/><path d=" M 255.351 57.126 L 266.55 268.342 L 274.553 268.342 L 269.612 48.333 C 264.338 50.027 259.466 53.031 255.351 57.126 Z  M 290.372 48.327 L 285.447 268.342 L 293.45 268.342 L 304.295 56.806 C 300.252 52.873 295.501 49.98 290.372 48.327 Z " fill="rgb(147,204,151)"/></g></g></svg>