<svg xmlns="http://www.w3.org/2000/svg" viewBox="0 0 1600 900">
  <rect fill="#ffff" width="1600" height="900" />
  <polygon fill="#4db882" points="957 450 539 900 1396 900" />
  <polygon fill="#14acc2" points="957 450 872.9 900 1396 900" />
  <polygon fill="#22bea4" points="-60 900 398 662 816 900" />
  <polygon fill="#00a0c6" points="337 900 398 662 816 900" />
  <polygon fill="#00c3c3" points="1203 546 1552 900 876 900" />
  <polygon fill="#0094c9" points="1203 546 1552 900 1162 900" />
  <polygon fill="#0fc5dd" points="641 695 886 900 367 900" />
  <polygon fill="#0086c9" points="587 900 641 695 886 900" />
  <polygon fill="#4dc6f0" points="1710 900 1401 632 1096 900" />
  <polygon fill="#0077c7" points="1710 900 1401 632 1365 900" />
  <polygon fill="#7cc5fa" points="1210 900 971 687 725 900" />
  <polygon fill="#1767c0" points="943 900 1210 900 971 687" />
</svg>
